<svg width="217" height="80" viewBox="0 0 217 80" fill="none" xmlns="http://www.w3.org/2000/svg">
<g clip-path="url(#clip0_66_672)">
<path d="M61.7561 52.7226C59.6046 52.7226 57.6856 52.2864 55.9993 51.4142C54.342 50.5129 53.0336 49.2336 52.0742 47.5763C51.1147 45.919 50.6349 43.9565 50.6349 41.6886L50.6349 41.0344C50.6349 38.7666 51.1147 36.8185 52.0742 35.1903C53.0336 33.5331 54.342 32.2538 55.9993 31.3524C57.6856 30.4511 59.6046 30.0005 61.7561 30.0005C63.9077 30.0005 65.8266 30.4511 67.513 31.3524C69.1993 32.2538 70.5222 33.5331 71.4817 35.1903C72.4412 36.8185 72.9209 38.7666 72.9209 41.0344L72.9209 41.6886C72.9209 43.9565 72.4412 45.919 71.4817 47.5763C70.5222 49.2336 69.1993 50.5129 67.513 51.4142C65.8266 52.2864 63.9077 52.7226 61.7561 52.7226ZM61.7561 48.7102C63.7332 48.7102 65.3324 48.0851 66.5535 46.8349C67.8037 45.5556 68.4288 43.7965 68.4288 41.5578L68.4288 41.1653C68.4288 38.9265 67.8183 37.182 66.5971 35.9318C65.376 34.6525 63.7623 34.0128 61.7561 34.0128C59.8081 34.0128 58.209 34.6525 56.9588 35.9318C55.7376 37.182 55.127 38.9265 55.127 41.1653L55.127 41.5578C55.127 43.7965 55.7376 45.5556 56.9588 46.8349C58.209 48.0851 59.8081 48.7102 61.7561 48.7102Z" fill="#48358C"/>
<path d="M78.5135 52.112L78.5135 30.611L82.9184 30.611L82.9184 33.1406L83.6162 33.1406C83.9651 32.2392 84.5175 31.585 85.2735 31.178C86.0585 30.7419 87.018 30.5238 88.1519 30.5238L90.7251 30.5238L90.7251 34.5798L87.9775 34.5798C86.5237 34.5798 85.3316 34.9868 84.4012 35.8009C83.4708 36.5859 83.0056 37.8071 83.0056 39.4644L83.0056 52.112L78.5135 52.112Z" fill="#48358C"/>
<path fill-rule="evenodd" clip-rule="evenodd" d="M21.498 47.9252L21.498 52.112L37.0677 52.112C38.8704 52.112 40.4549 51.7922 41.8215 51.1525C43.2171 50.5129 44.3074 49.597 45.0924 48.4049C45.8774 47.2129 46.2699 45.7736 46.2699 44.0873L46.2699 43.6512C46.2699 42.1974 45.9937 41.0199 45.4413 40.1186C44.918 39.2172 44.2638 38.5194 43.4787 38.0252C42.7228 37.5018 42.0105 37.1529 41.3417 36.9785L41.3417 36.2807C42.0105 36.0771 42.7083 35.7282 43.4351 35.234C44.1911 34.7397 44.8307 34.0419 45.3541 33.1406C45.8774 32.2392 46.1391 31.0908 46.1391 29.6952L46.1391 29.259C46.1391 27.689 45.7466 26.337 44.9616 25.2031C44.2056 24.0401 43.1444 23.1533 41.7779 22.5427C40.4113 21.9031 38.8122 21.5833 36.9805 21.5833L21.498 21.5833L21.498 25.7701L25.5976 25.7701L25.5976 47.9252L21.498 47.9252ZM36.5007 47.838L30.3514 47.838L30.3514 38.8974L30.3514 34.5798L30.3514 25.8573L36.5007 25.8573C38.0126 25.8573 39.2047 26.2352 40.077 26.9912C40.9783 27.7181 41.429 28.7212 41.429 30.0005L41.429 30.4366C41.429 31.7159 40.9783 32.7335 40.077 33.4895C39.1756 34.2163 37.9836 34.5798 36.5007 34.5798L33.0632 34.5798L33.0619 38.8974L36.5007 38.8974C38.0999 38.8974 39.3356 39.2754 40.2078 40.0313C41.1091 40.7873 41.5598 41.834 41.5598 43.1714L41.5598 43.5639C41.5598 44.9014 41.1091 45.9481 40.2078 46.704C39.3065 47.46 38.0708 47.838 36.5007 47.838Z" fill="#48358C"/>
<path fill-rule="evenodd" clip-rule="evenodd" d="M97.3126 51.9375C98.5337 52.4609 99.9148 52.7226 101.456 52.7226C102.939 52.7226 104.131 52.519 105.032 52.112C105.933 51.6759 106.617 51.1671 107.082 50.5856C107.547 50.0041 107.896 49.4952 108.128 49.0591L108.783 49.0591L108.783 49.19C108.783 50.0913 109.103 50.8036 109.742 51.327C110.382 51.8503 111.21 52.112 112.228 52.112L115.586 52.112L115.586 48.3613L113.755 48.3613C112.94 48.3613 112.533 47.9252 112.533 47.0529L112.533 38.1996C112.533 35.5829 111.734 33.5621 110.135 32.1375C108.536 30.7128 106.34 30.0005 103.549 30.0005C101.747 30.0005 100.206 30.2912 98.9262 30.8727C97.6469 31.4542 96.6148 32.2247 95.8298 33.1842C95.0738 34.1146 94.5214 35.1613 94.1725 36.3243L98.3593 37.6763C98.621 36.5133 99.1588 35.5683 99.9729 34.8414C100.787 34.1146 101.965 33.7511 103.506 33.7511C105.076 33.7511 106.239 34.1291 106.995 34.8851C107.751 35.641 108.128 36.6441 108.128 37.8943L108.128 39.2899L108.128 42.7789L108.128 43.215C108.128 45.0177 107.576 46.4424 106.471 47.4891C105.366 48.5067 103.913 49.0155 102.11 49.0155C100.802 49.0155 99.7694 48.7248 99.0135 48.1433C98.2575 47.5618 97.8795 46.7767 97.8795 45.7882C97.8795 44.7996 98.243 44.0582 98.9699 43.5639C99.6967 43.0406 100.656 42.7789 101.848 42.7789L106.606 42.7789L106.607 39.2899L101.587 39.2899C100.017 39.2899 98.6064 39.5371 97.3562 40.0313C96.135 40.5256 95.161 41.267 94.4342 42.2556C93.7364 43.215 93.3875 44.4362 93.3875 45.919C93.3875 47.3728 93.7364 48.6085 94.4342 49.6261C95.161 50.6437 96.1205 51.4142 97.3126 51.9375Z" fill="#48358C"/>
<path d="M55.3496 79.3693L55.3496 57.8684L59.7545 57.8684L59.7545 60.3979L60.4523 60.3979C60.8012 59.4966 61.3536 58.8424 62.1095 58.4353C62.8946 57.9992 63.854 57.7811 64.988 57.7811L67.5611 57.7811L67.5611 61.8371L64.8135 61.8371C63.3598 61.8371 62.1677 62.2441 61.2373 63.0582C60.3069 63.8433 59.8417 65.0644 59.8417 66.7217L59.8417 79.3693L55.3496 79.3693Z" fill="#48358C"/>
<path d="M106.266 79.9799C104.202 79.9799 102.327 79.5438 100.64 78.6715C98.9829 77.7993 97.66 76.5345 96.6714 74.8772C95.7119 73.22 95.2322 71.2283 95.2322 68.9023L95.2322 68.3354C95.2322 66.0094 95.7119 64.0323 96.6714 62.4041C97.66 60.7468 98.9829 59.482 100.64 58.6098C102.327 57.7084 104.202 57.2578 106.266 57.2578C108.33 57.2578 110.09 57.6358 111.543 58.3917C112.997 59.1477 114.16 60.1507 115.032 61.401C115.934 62.6512 116.515 64.0323 116.777 65.5442L112.416 66.46C112.27 65.5005 111.965 64.6283 111.5 63.8433C111.034 63.0582 110.38 62.4331 109.537 61.9679C108.694 61.5027 107.633 61.2701 106.353 61.2701C105.103 61.2701 103.969 61.5609 102.952 62.1424C101.963 62.6948 101.178 63.5089 100.597 64.5847C100.015 65.6314 99.7243 66.9107 99.7243 68.4226L99.7243 68.8151C99.7243 70.327 100.015 71.6208 100.597 72.6966C101.178 73.7724 101.963 74.5865 102.952 75.1389C103.969 75.6913 105.103 75.9675 106.353 75.9675C108.243 75.9675 109.682 75.4878 110.671 74.5283C111.66 73.5398 112.285 72.2896 112.546 70.7777L116.908 71.7807C116.559 73.2636 115.934 74.6301 115.032 75.8803C114.16 77.1305 112.997 78.1336 111.543 78.8896C110.09 79.6165 108.33 79.9799 106.266 79.9799Z" fill="#48358C"/>
<path d="M174.091 79.3693L174.091 57.8684L178.496 57.8684L178.496 60.3979L179.194 60.3979C179.543 59.4966 180.095 58.8424 180.851 58.4353C181.636 57.9992 182.596 57.7811 183.73 57.7811L186.303 57.7811L186.303 61.8371L183.555 61.8371C182.102 61.8371 180.91 62.2441 179.979 63.0582C179.049 63.8433 178.584 65.0644 178.584 66.7217L178.584 79.3693L174.091 79.3693Z" fill="#48358C"/>
<path fill-rule="evenodd" clip-rule="evenodd" d="M74.1486 79.1949C75.3698 79.7182 76.7508 79.9799 78.2918 79.9799C79.7746 79.9799 80.9667 79.7764 81.868 79.3693C82.7694 78.9332 83.4526 78.4244 83.9178 77.8429C84.383 77.2614 84.7319 76.7526 84.9645 76.3164L85.6187 76.3164L85.6187 76.4473C85.6187 77.3486 85.9385 78.0609 86.5782 78.5843C87.2178 79.1076 88.0465 79.3693 89.0641 79.3693L92.4223 79.3693L92.4223 75.6186L90.5905 75.6186C89.7764 75.6186 89.3694 75.1825 89.3694 74.3103L89.3694 65.4569C89.3694 62.8402 88.5698 60.8195 86.9707 59.3948C85.3716 57.9701 83.1764 57.2578 80.3852 57.2578C78.5826 57.2578 77.0416 57.5485 75.7623 58.13C74.483 58.7115 73.4508 59.482 72.6658 60.4415C71.9099 61.3719 71.3574 62.4186 71.0085 63.5816L75.1953 64.9336C75.457 63.7706 75.9949 62.8256 76.809 62.0988C77.6231 61.3719 78.8006 61.0085 80.3416 61.0085C81.9117 61.0085 83.0747 61.3864 83.8306 62.1424C84.5866 62.8983 84.9645 63.9014 84.9645 65.1516L84.9645 66.5472L84.9645 70.0362L84.9645 70.4724C84.9645 72.275 84.4121 73.6997 83.3073 74.7464C82.2024 75.764 80.7487 76.2728 78.946 76.2728C77.6376 76.2728 76.6055 75.9821 75.8495 75.4006C75.0936 74.8191 74.7156 74.0341 74.7156 73.0455C74.7156 72.057 75.079 71.3155 75.8059 70.8213C76.5328 70.2979 77.4923 70.0362 78.6843 70.0362L83.4367 70.0362L83.43 66.5472L78.4227 66.5472C76.8526 66.5472 75.4425 66.7944 74.1922 67.2887C72.9711 67.7829 71.9971 68.5243 71.2702 69.5129C70.5724 70.4724 70.2235 71.6935 70.2235 73.1763C70.2235 74.6301 70.5724 75.8658 71.2702 76.8834C71.9971 77.901 72.9566 78.6715 74.1486 79.1949Z" fill="#48358C"/>
<path fill-rule="evenodd" clip-rule="evenodd" d="M122.089 48.8406L122.089 79.3693L126.581 79.3693L126.581 68.5098L126.581 60.9212L126.581 48.8406L122.089 48.8406ZM128.257 59.5603C128.257 59.5603 128.122 60.0135 128.116 61.3854C128.109 62.7574 128.238 63.1891 128.238 63.1891C129.372 61.9679 130.869 61.3574 132.73 61.3574C134.358 61.3574 135.638 61.808 136.568 62.7093C137.498 63.5816 137.964 64.9481 137.964 66.8089L137.964 79.3693L142.456 79.3693L142.456 66.46C142.456 64.5992 142.092 63.0146 141.365 61.7063C140.638 60.3688 139.635 59.3366 138.356 58.6098C137.106 57.8829 135.667 57.5195 134.038 57.5195C132.672 57.5195 131.538 57.6939 130.637 58.0428C129.764 58.3626 129.052 58.7842 128.5 59.3076C128.416 59.3914 128.335 59.4757 128.257 59.5603Z" fill="#48358C"/>
<path fill-rule="evenodd" clip-rule="evenodd" d="M151.45 79.1949C152.671 79.7182 154.052 79.9799 155.593 79.9799C157.076 79.9799 158.268 79.7764 159.169 79.3693C160.071 78.9332 160.754 78.4244 161.219 77.8429C161.684 77.2614 162.033 76.7526 162.266 76.3164L162.92 76.3164L162.92 76.4473C162.92 77.3486 163.24 78.0609 163.88 78.5843C164.519 79.1076 165.348 79.3693 166.366 79.3693L169.724 79.3693L169.724 75.6186L167.892 75.6186C167.078 75.6186 166.671 75.1825 166.671 74.3103L166.671 65.4569C166.671 62.8402 165.871 60.8195 164.272 59.3948C162.673 57.9701 160.478 57.2578 157.687 57.2578C155.884 57.2578 154.343 57.5485 153.064 58.13C151.784 58.7115 150.752 59.482 149.967 60.4415C149.211 61.3719 148.659 62.4186 148.31 63.5816L152.497 64.9336C152.758 63.7706 153.296 62.8256 154.11 62.0988C154.925 61.3719 156.102 61.0085 157.643 61.0085C159.213 61.0085 160.376 61.3864 161.132 62.1424C161.888 62.8983 162.266 63.9014 162.266 65.1516L162.266 66.5472L162.266 70.0362L162.266 70.4724C162.266 72.275 161.714 73.6997 160.609 74.7464C159.504 75.764 158.05 76.2728 156.247 76.2728C154.939 76.2728 153.907 75.9821 153.151 75.4006C152.395 74.8191 152.017 74.0341 152.017 73.0455C152.017 72.057 152.38 71.3155 153.107 70.8213C153.834 70.2979 154.794 70.0362 155.986 70.0362L160.736 70.0362L160.738 66.5472L155.724 66.5472C154.154 66.5472 152.744 66.7944 151.494 67.2887C150.273 67.7829 149.299 68.5243 148.572 69.5129C147.874 70.4724 147.525 71.6935 147.525 73.1763C147.525 74.6301 147.874 75.8658 148.572 76.8834C149.299 77.901 150.258 78.6715 151.45 79.1949Z" fill="#48358C"/>
<ellipse cx="21.517" cy="23.6766" rx="0.517156" ry="2.09234" transform="rotate(180 21.517 23.6766)" fill="#48358C"/>
<ellipse cx="21.517" cy="50.0194" rx="0.517156" ry="2.0878" transform="rotate(180 21.517 50.0194)" fill="#48358C"/>
<ellipse cx="90.7592" cy="32.5527" rx="0.517156" ry="2.02675" transform="rotate(180 90.7592 32.5527)" fill="#48358C"/>
<ellipse cx="67.5639" cy="59.812" rx="0.517156" ry="2.02675" transform="rotate(180 67.5639 59.812)" fill="#48358C"/>
<ellipse cx="92.4506" cy="77.5099" rx="0.517156" ry="1.87378" transform="rotate(180 92.4506 77.5099)" fill="#48358C"/>
<ellipse cx="73.1203" cy="64.2701" rx="0.517156" ry="2.2041" transform="rotate(-71.4305 73.1203 64.2701)" fill="#48358C"/>
<ellipse cx="83.4498" cy="68.288" rx="0.517156" ry="1.74014" fill="#48358C"/>
<ellipse cx="57.5723" cy="57.8902" rx="0.517156" ry="2.2041" transform="rotate(-90 57.5723 57.8902)" fill="#48358C"/>
<ellipse cx="169.753" cy="77.4927" rx="0.517156" ry="1.87378" transform="rotate(180 169.753 77.4927)" fill="#48358C"/>
<ellipse cx="150.429" cy="64.2526" rx="0.517156" ry="2.2041" transform="rotate(-71.4305 150.429 64.2526)" fill="#48358C"/>
<ellipse cx="160.754" cy="68.292" rx="0.517156" ry="1.74014" fill="#48358C"/>
<ellipse cx="176.305" cy="57.8932" rx="0.517156" ry="2.2041" transform="rotate(-90 176.305 57.8932)" fill="#48358C"/>
<ellipse cx="186.331" cy="59.8109" rx="0.517156" ry="2.02675" transform="rotate(180 186.331 59.8109)" fill="#48358C"/>
<ellipse cx="124.316" cy="48.842" rx="0.517156" ry="2.2041" transform="rotate(-90 124.316 48.842)" fill="#48358C"/>
<ellipse cx="0.434263" cy="2.22673" rx="0.434263" ry="2.22673" transform="matrix(-0.203057 -0.979167 -0.979167 0.203057 116.882 65.9571)" fill="#48358C"/>
<ellipse cx="114.748" cy="71.2803" rx="0.434263" ry="2.24494" transform="rotate(103.799 114.748 71.2803)" fill="#48358C"/>
<ellipse cx="33.0502" cy="36.7401" rx="0.517156" ry="2.16235" transform="rotate(180 33.0502 36.7401)" fill="#48358C"/>
<ellipse cx="115.613" cy="50.241" rx="0.517156" ry="1.87378" transform="rotate(180 115.613 50.241)" fill="#48358C"/>
<ellipse cx="96.2863" cy="37.0011" rx="0.517156" ry="2.2041" transform="rotate(-71.4305 96.2863 37.0011)" fill="#48358C"/>
<ellipse cx="106.614" cy="41.0407" rx="0.517156" ry="1.74014" fill="#48358C"/>
<ellipse cx="80.7324" cy="30.6355" rx="0.517156" ry="2.2041" transform="rotate(-90 80.7324 30.6355)" fill="#48358C"/>
<path d="M199.455 67.4199L199.49 66.1931C199.541 64.455 199.923 63.0336 200.635 61.9288C201.382 60.825 202.549 59.9211 204.136 59.217L205.015 58.8333C206.566 58.1623 207.762 57.4297 208.602 56.6356C209.442 55.8415 209.882 54.7629 209.922 53.3997C209.95 52.4114 209.72 51.569 209.229 50.8725C208.774 50.1429 208.109 49.5778 207.236 49.1772C206.362 48.7765 205.33 48.5588 204.14 48.5241C202.915 48.4884 201.804 48.6606 200.806 49.0408C199.841 49.422 199.058 50.0131 198.456 50.8141C197.888 51.6162 197.586 52.6306 197.551 53.8575L197.518 54.9821L190.885 54.7887L190.915 53.7663C190.983 51.4148 191.62 49.4039 192.826 47.7337C194.032 46.0634 195.635 44.814 197.633 43.9855C199.633 43.1229 201.857 42.7273 204.306 42.7987C206.721 42.8692 208.851 43.3747 210.696 44.3153C212.575 45.2569 214.036 46.5274 215.079 48.1268C216.122 49.7262 216.614 51.5483 216.554 53.5931C216.495 55.6379 216.072 57.3139 215.285 58.6212C214.499 59.8944 213.516 60.9231 212.336 61.7073C211.191 62.4584 210.014 63.1062 208.807 63.6508L207.928 64.0345C207.307 64.2893 206.872 64.6177 206.622 65.0197C206.373 65.3876 206.238 65.9465 206.216 66.6962L206.19 67.6164L199.455 67.4199ZM202.664 79.9972C201.303 79.9575 200.16 79.4808 199.233 78.5669C198.341 77.62 197.916 76.4309 197.958 74.9995C198 73.5682 198.492 72.4229 199.436 71.5636C200.416 70.6712 201.585 70.2449 202.946 70.2846C204.341 70.3252 205.484 70.819 206.375 71.766C207.268 72.6788 207.694 73.8509 207.652 75.2822C207.61 76.7136 207.117 77.8759 206.172 78.7693C205.228 79.6286 204.059 80.0379 202.664 79.9972Z" fill="#F27405"/>
<path d="M194.189 55.3243C196.021 55.3728 197.511 55.2074 197.518 54.955C197.525 54.7025 196.045 54.4585 194.213 54.4099C192.382 54.3614 190.891 54.5268 190.885 54.7793C190.878 55.0318 192.358 55.2758 194.189 55.3243Z" fill="#F27405"/>
<path d="M202.81 67.9796C204.669 68.0288 206.182 67.8641 206.189 67.6116C206.196 67.3591 204.693 67.1145 202.834 67.0652C200.974 67.016 199.461 67.1808 199.454 67.4332C199.448 67.6857 200.95 67.9303 202.81 67.9796Z" fill="#F27405"/>
<path d="M0.623968 20.1103C0.685508 19.7822 1.09712 19.5963 1.50292 19.7132L13.0007 23.026C13.3428 23.1246 13.5611 23.4068 13.5092 23.6834L13.261 25.0071C13.2058 25.3013 12.8652 25.4874 12.4902 25.4283L0.719216 23.5722C0.324175 23.5099 0.044296 23.2007 0.10243 22.8908L0.623968 20.1103Z" fill="#F27405"/>
<path d="M7.45806 5.55138C7.6941 5.31534 8.13884 5.39424 8.40774 5.71987L16.0269 14.946C16.2536 15.2206 16.2745 15.5768 16.0754 15.7758L15.1231 16.7281C14.9115 16.9397 14.5253 16.901 14.2492 16.6405L5.58202 8.4624C5.29114 8.18794 5.23474 7.7747 5.45771 7.55173L7.45806 5.55138Z" fill="#F27405"/>
<path d="M24.8472 0.144031C25.1697 0.0576353 25.5154 0.348335 25.5854 0.764788L27.5707 12.5644C27.6298 12.9156 27.4698 13.2345 27.1979 13.3073L25.897 13.6559C25.6079 13.7333 25.2928 13.5068 25.184 13.1431L21.767 1.72703C21.6523 1.3439 21.8101 0.957825 22.1147 0.876211L24.8472 0.144031Z" fill="#F27405"/>
</g>
<defs>
<clipPath id="clip0_66_672">
<rect width="217" height="80" fill="white"/>
</clipPath>
</defs>
</svg>
