<svg width="15" height="16" viewBox="0 0 15 16" fill="none" xmlns="http://www.w3.org/2000/svg">
<path d="M13.6284 6.77594H13.125V6.75H7.5V9.25H11.0322C10.5169 10.7053 9.13219 11.75 7.5 11.75C5.42906 11.75 3.75 10.0709 3.75 8C3.75 5.92906 5.42906 4.25 7.5 4.25C8.45594 4.25 9.32563 4.61062 9.98781 5.19969L11.7556 3.43187C10.6394 2.39156 9.14625 1.75 7.5 1.75C4.04844 1.75 1.25 4.54844 1.25 8C1.25 11.4516 4.04844 14.25 7.5 14.25C10.9516 14.25 13.75 11.4516 13.75 8C13.75 7.58094 13.7069 7.17188 13.6284 6.77594Z" fill="#FFC107"/>
<path d="M1.9707 5.09094L4.02414 6.59688C4.57977 5.22125 5.92539 4.25 7.50008 4.25C8.45602 4.25 9.3257 4.61062 9.98789 5.19969L11.7557 3.43187C10.6395 2.39156 9.14633 1.75 7.50008 1.75C5.09945 1.75 3.01758 3.10531 1.9707 5.09094Z" fill="#FF3D00"/>
<path d="M7.5001 14.2499C9.11447 14.2499 10.5813 13.6321 11.6904 12.6274L9.75604 10.9905C9.12854 11.4658 8.34854 11.7499 7.5001 11.7499C5.87447 11.7499 4.49416 10.7133 3.97416 9.26678L1.93604 10.8371C2.97041 12.8612 5.07104 14.2499 7.5001 14.2499Z" fill="#4CAF50"/>
<path d="M13.6284 6.77594H13.125V6.75H7.5V9.25H11.0322C10.7847 9.94906 10.335 10.5519 9.755 10.9909L9.75594 10.9903L11.6903 12.6272C11.5534 12.7516 13.75 11.125 13.75 8C13.75 7.58094 13.7069 7.17188 13.6284 6.77594Z" fill="#1976D2"/>
</svg>
