<svg width="15" height="16" viewBox="0 0 15 16" fill="none" xmlns="http://www.w3.org/2000/svg">
<path d="M10.6305 13.6219L4.38051 13.6278C3.00551 13.6291 1.87957 12.5053 1.87801 11.1303L1.87207 4.88033C1.87082 3.50533 2.99457 2.37939 4.36957 2.37783L10.6196 2.37189C11.9946 2.37064 13.1205 3.49439 13.1221 4.86939L13.128 11.1194C13.1296 12.4947 12.0055 13.6206 10.6305 13.6219Z" fill="url(#paint0_radial_111_56)"/>
<path d="M10.6305 13.6219L4.38051 13.6278C3.00551 13.6291 1.87957 12.5053 1.87801 11.1303L1.87207 4.88033C1.87082 3.50533 2.99457 2.37939 4.36957 2.37783L10.6196 2.37189C11.9946 2.37064 13.1205 3.49439 13.1221 4.86939L13.128 11.1194C13.1296 12.4947 12.0055 13.6206 10.6305 13.6219Z" fill="url(#paint1_radial_111_56)"/>
<path d="M7.5 10.1875C6.29406 10.1875 5.3125 9.20625 5.3125 8C5.3125 6.79375 6.29406 5.8125 7.5 5.8125C8.70594 5.8125 9.6875 6.79375 9.6875 8C9.6875 9.20625 8.70594 10.1875 7.5 10.1875ZM7.5 6.4375C6.63844 6.4375 5.9375 7.13844 5.9375 8C5.9375 8.86156 6.63844 9.5625 7.5 9.5625C8.36156 9.5625 9.0625 8.86156 9.0625 8C9.0625 7.13844 8.36156 6.4375 7.5 6.4375Z" fill="white"/>
<path d="M9.84375 6.125C10.1026 6.125 10.3125 5.91513 10.3125 5.65625C10.3125 5.39737 10.1026 5.1875 9.84375 5.1875C9.58487 5.1875 9.375 5.39737 9.375 5.65625C9.375 5.91513 9.58487 6.125 9.84375 6.125Z" fill="white"/>
<path d="M9.375 12.0625H5.625C4.41906 12.0625 3.4375 11.0813 3.4375 9.875V6.125C3.4375 4.91875 4.41906 3.9375 5.625 3.9375H9.375C10.5809 3.9375 11.5625 4.91875 11.5625 6.125V9.875C11.5625 11.0813 10.5809 12.0625 9.375 12.0625ZM5.625 4.5625C4.76344 4.5625 4.0625 5.26344 4.0625 6.125V9.875C4.0625 10.7366 4.76344 11.4375 5.625 11.4375H9.375C10.2366 11.4375 10.9375 10.7366 10.9375 9.875V6.125C10.9375 5.26344 10.2366 4.5625 9.375 4.5625H5.625Z" fill="white"/>
<defs>
<radialGradient id="paint0_radial_111_56" cx="0" cy="0" r="1" gradientUnits="userSpaceOnUse" gradientTransform="translate(6.05645 13.636) scale(14.0309)">
<stop stop-color="#FFDD55"/>
<stop offset="0.328" stop-color="#FF543F"/>
<stop offset="0.348" stop-color="#FC5245"/>
<stop offset="0.504" stop-color="#E64771"/>
<stop offset="0.643" stop-color="#D53E91"/>
<stop offset="0.761" stop-color="#CC39A4"/>
<stop offset="0.841" stop-color="#C837AB"/>
</radialGradient>
<radialGradient id="paint1_radial_111_56" cx="0" cy="0" r="1" gradientUnits="userSpaceOnUse" gradientTransform="translate(3.68332 2.23136) scale(9.31656 6.20763)">
<stop stop-color="#4168C9"/>
<stop offset="0.999" stop-color="#4168C9" stop-opacity="0"/>
</radialGradient>
</defs>
</svg>
